<?xml version="1.0" encoding="utf-8"?>
<!-- Generator: Adobe Illustrator 24.3.0, SVG Export Plug-In . SVG Version: 6.00 Build 0)  -->
<svg version="1.1" id="Слой_1" xmlns="http://www.w3.org/2000/svg" xmlns:xlink="http://www.w3.org/1999/xlink" x="0px" y="0px"
	 viewBox="0 0 745.9 209.3" style="enable-background:new 0 0 745.9 209.3;" xml:space="preserve">
<style type="text/css">
	.st0{fill:#FFFFFF;}
	.st1{fill:#FFFFFF;}
</style>
<g>
	<g>
		<path class="st0" d="M261.8,74.9h10.1v31.4l20.6-31.4h9.8v47.2h-10.1V90.7l-20.6,31.4h-9.7L261.8,74.9L261.8,74.9z"/>
		<path class="st0" d="M324.1,83.2H309v-8.4h40.5v8.4h-15.2v38.9h-10.1L324.1,83.2L324.1,83.2z"/>
		<path class="st0" d="M351,99h21.6v8.4H351V99z"/>
		<path class="st0" d="M378.6,86.3h8.9v13.8h15.2V86.3h8.9V122h-8.9v-14.5h-15.2V122h-8.9V86.3z"/>
		<path class="st0" d="M430.5,122.9c-1.9,0-3.6-0.3-5.1-0.8c-1.5-0.6-2.7-1.3-3.8-2.4c-1-1-1.8-2.2-2.4-3.6
			c-0.5-1.4-0.8-2.9-0.8-4.5c0-7.2,4.3-10.8,12.8-10.8h10.7v-1.7c0-2.3-0.5-4-1.6-4.9s-2.7-1.4-5-1.4c-2,0-3.5,0.3-4.4,1
			s-1.4,1.6-1.6,2.6h-8.9c0.1-1.5,0.5-3,1.2-4.3s1.7-2.5,3-3.5s2.8-1.7,4.7-2.3c1.8-0.6,4-0.8,6.3-0.8s4.4,0.2,6.2,0.7
			c1.9,0.5,3.5,1.3,4.8,2.4s2.3,2.5,3.1,4.3c0.7,1.8,1.1,3.9,1.1,6.3V113c0,1.9,0,3.5,0.1,5c0.1,1.4,0.2,2.8,0.4,4.1H443
			c-0.2-1-0.3-1.7-0.3-2.3c0-0.5,0-1.3,0-2.3c-1,1.4-2.5,2.7-4.5,3.8S433.6,122.9,430.5,122.9z M433.3,116c1.1,0,2.1-0.1,3.2-0.4
			c1-0.3,2-0.7,2.8-1.3c0.8-0.6,1.5-1.4,2-2.3s0.7-2,0.7-3.3V107h-9c-1.7,0-3,0.4-4,1.2c-1,0.8-1.5,1.8-1.5,3.2
			c0,1.4,0.5,2.6,1.5,3.4C429.9,115.6,431.4,116,433.3,116z"/>
		<path class="st0" d="M458.6,86.3h17.9c2.3,0,4.3,0.2,5.9,0.7c1.6,0.5,3,1.1,4.1,2s1.9,1.9,2.4,3c0.5,1.2,0.7,2.5,0.7,3.8
			c0,1.7-0.5,3.2-1.5,4.7s-2.4,2.4-4.1,2.9c2.2,0.5,3.9,1.6,5.2,3.1c1.2,1.5,1.9,3.3,1.9,5.3c0,3.1-1.1,5.6-3.2,7.4
			c-2.2,1.8-5.4,2.8-9.8,2.8h-19.3V86.3H458.6z M475.2,100.6c2.1,0,3.5-0.3,4.3-0.9s1.2-1.5,1.2-2.7s-0.4-2.1-1.2-2.7
			s-2.2-0.9-4.2-0.9h-7.8v7.1h7.7V100.6z M476.1,114.9c2,0,3.5-0.3,4.5-0.9s1.5-1.6,1.5-2.9s-0.5-2.3-1.4-2.9s-2.4-0.9-4.6-0.9h-8.6
			v7.7h8.6V114.9z"/>
		<path class="st0" d="M497.4,86.3h8.9v22.9l15.9-22.9h8.2V122h-8.9V99.1L505.6,122h-8.2V86.3z"/>
		<path class="st0" d="M539.2,86.3h25.6v7.4h-16.7V122h-8.9L539.2,86.3L539.2,86.3z"/>
		<path class="st0" d="M579.6,122.9c-1.9,0-3.6-0.3-5.1-0.8c-1.5-0.6-2.7-1.3-3.8-2.4c-1-1-1.8-2.2-2.4-3.6
			c-0.5-1.4-0.8-2.9-0.8-4.5c0-7.2,4.3-10.8,12.8-10.8H591v-1.7c0-2.3-0.5-4-1.6-4.9s-2.7-1.4-5-1.4c-2,0-3.5,0.3-4.4,1
			s-1.4,1.6-1.6,2.6h-8.9c0.1-1.5,0.5-3,1.2-4.3s1.7-2.5,3-3.5s2.8-1.7,4.7-2.3c1.8-0.6,4-0.8,6.3-0.8s4.4,0.2,6.2,0.7
			c1.9,0.5,3.5,1.3,4.8,2.4s2.3,2.5,3.1,4.3c0.7,1.8,1.1,3.9,1.1,6.3V113c0,1.9,0,3.5,0.1,5c0.1,1.4,0.2,2.8,0.4,4.1H592
			c-0.2-1-0.3-1.7-0.3-2.3c0-0.5,0-1.3,0-2.3c-1,1.4-2.5,2.7-4.5,3.8S582.7,122.9,579.6,122.9z M582.3,116c1.1,0,2.1-0.1,3.2-0.4
			c1-0.3,2-0.7,2.8-1.3c0.8-0.6,1.5-1.4,2-2.3s0.7-2,0.7-3.3V107h-9c-1.7,0-3,0.4-4,1.2c-1,0.8-1.5,1.8-1.5,3.2
			c0,1.4,0.5,2.6,1.5,3.4S580.4,116,582.3,116z"/>
		<path class="st0" d="M615.7,93.8h-11.4v-7.4H636v7.4h-11.4v28.3h-8.9L615.7,93.8L615.7,93.8z"/>
		<path class="st0" d="M656.9,122.9c-2.4,0-4.7-0.4-6.9-1.1s-4.1-1.9-5.7-3.4c-1.6-1.5-2.9-3.4-3.8-5.7c-0.9-2.3-1.4-5-1.4-8.1v-1.3
			c0-2.9,0.5-5.5,1.4-7.7s2.2-4,3.8-5.5s3.5-2.6,5.7-3.3c2.2-0.7,4.5-1.1,6.9-1.1s4.7,0.4,6.9,1.1s4.1,1.9,5.7,3.3
			c1.6,1.5,2.9,3.3,3.9,5.5c0.9,2.2,1.4,4.8,1.4,7.7v1.3c0,3.1-0.5,5.7-1.4,8s-2.2,4.2-3.9,5.7c-1.6,1.5-3.5,2.7-5.7,3.4
			C661.7,122.5,659.4,122.9,656.9,122.9z M656.9,115.3c2.5,0,4.6-0.9,6.3-2.7c1.7-1.8,2.5-4.5,2.5-8.1v-1.3c0-3.3-0.8-5.8-2.5-7.5
			s-3.8-2.6-6.3-2.6c-2.6,0-4.7,0.9-6.3,2.6c-1.7,1.7-2.5,4.2-2.5,7.5v1.3c0,3.6,0.8,6.4,2.5,8.1
			C652.3,114.5,654.4,115.3,656.9,115.3z"/>
		<path class="st0" d="M681.2,86.3h8.3v5.3c0.9-1.6,2.3-3,4.2-4.2s4.4-1.8,7.4-1.8c4.8,0,8.5,1.5,11.2,4.4s4,7.4,4,13.3v1.3
			c0,6.2-1.4,10.8-4.1,13.8s-6.4,4.6-11.1,4.6c-2.4,0-4.6-0.5-6.4-1.6c-1.9-1.1-3.4-2.4-4.6-4.1v18.4h-8.9L681.2,86.3L681.2,86.3z
			 M699,115.3c2.3,0,4.3-0.9,5.9-2.7c1.6-1.8,2.4-4.5,2.4-8.1v-1.3c0-3.4-0.8-5.9-2.3-7.6s-3.5-2.5-5.9-2.5c-2.6,0-4.7,0.7-6.4,2.2
			s-2.5,3.7-2.5,6.6v4c0,3.2,0.8,5.6,2.5,7.1C694.2,114.6,696.4,115.3,699,115.3z"/>
	</g>
	<g>
		<path class="st0" d="M271.8,164.6c-1.7,0-3.4-0.3-4.9-0.8c-1.6-0.5-2.9-1.4-4.1-2.5s-2.1-2.6-2.8-4.4c-0.7-1.8-1-4-1-6.6v-0.8
			c0-2.5,0.3-4.6,1-6.4s1.6-3.2,2.8-4.3c1.2-1.1,2.6-2,4.1-2.5c1.6-0.5,3.2-0.8,4.9-0.8c1.7,0,3.4,0.3,4.9,0.8
			c1.6,0.5,2.9,1.4,4.1,2.5s2.1,2.6,2.8,4.3c0.7,1.8,1,3.9,1,6.4v0.8c0,2.6-0.4,4.8-1,6.6c-0.7,1.8-1.6,3.3-2.8,4.4
			c-1.2,1.1-2.6,2-4.1,2.5S273.6,164.6,271.8,164.6z M271.8,160.3c1,0,2-0.2,2.9-0.5s1.8-0.9,2.5-1.7s1.3-1.8,1.8-3.1
			c0.4-1.3,0.7-2.9,0.7-4.7v-0.8c0-1.8-0.2-3.3-0.7-4.5c-0.4-1.2-1-2.2-1.8-3s-1.6-1.3-2.5-1.7c-0.9-0.3-1.9-0.5-2.9-0.5
			s-2,0.2-2.9,0.5s-1.8,0.9-2.5,1.7s-1.3,1.8-1.7,3c-0.4,1.2-0.6,2.7-0.6,4.5v0.8c0,1.9,0.2,3.4,0.6,4.7c0.4,1.3,1,2.3,1.7,3.1
			s1.6,1.4,2.5,1.7S270.8,160.3,271.8,160.3z"/>
		<path class="st0" d="M289.8,142.7h4.1v3.6c0.6-1.2,1.6-2.2,2.9-2.9c1.3-0.7,2.7-1.1,4.3-1.1c2.8,0,5,0.9,6.6,2.6
			c1.6,1.8,2.4,4.4,2.4,7.9v0.8c0,1.8-0.2,3.4-0.6,4.8s-1,2.5-1.8,3.4s-1.7,1.6-2.8,2c-1.1,0.5-2.3,0.7-3.7,0.7
			c-1.5,0-2.9-0.3-4.2-1c-1.3-0.7-2.2-1.6-2.7-2.8v11.5h-4.4L289.8,142.7L289.8,142.7z M300.1,160.7c1.7,0,3-0.6,4-1.7
			s1.5-2.9,1.5-5.3v-0.8c0-2.3-0.5-3.9-1.5-5s-2.4-1.6-4.1-1.6c-0.8,0-1.5,0.1-2.2,0.4c-0.7,0.2-1.3,0.6-1.9,1.1s-1,1.1-1.3,1.8
			c-0.3,0.7-0.5,1.5-0.5,2.4v2.8c0,1,0.2,1.9,0.5,2.7c0.3,0.8,0.8,1.4,1.3,1.9s1.2,0.9,1.9,1.1S299.3,160.7,300.1,160.7z"/>
		<path class="st0" d="M323.9,164.6c-1.4,0-2.8-0.2-4-0.7c-1.3-0.4-2.4-1.1-3.3-2c-1-0.9-1.7-2-2.3-3.4c-0.6-1.4-0.8-3-0.8-4.8v-0.8
			c0-1.8,0.3-3.3,0.8-4.6s1.3-2.4,2.2-3.3c0.9-0.9,2-1.5,3.2-2c1.2-0.4,2.5-0.6,3.9-0.6c3.3,0,5.8,0.9,7.5,2.6
			c1.7,1.8,2.6,4.3,2.6,7.5v2.3H318c0,1.1,0.2,2,0.5,2.8s0.8,1.4,1.3,1.9c0.6,0.5,1.2,0.8,1.9,1c0.7,0.2,1.4,0.3,2.2,0.3
			c1.5,0,2.7-0.2,3.4-0.7c0.7-0.5,1.2-1.1,1.5-1.9h4.4c-0.4,2.1-1.5,3.7-3.2,4.8C328.3,164,326.3,164.6,323.9,164.6z M323.7,146.1
			c-0.8,0-1.5,0.1-2.2,0.3c-0.7,0.2-1.3,0.5-1.8,0.9s-0.9,1-1.3,1.6c-0.3,0.7-0.5,1.5-0.5,2.4h11.2c0-1-0.2-1.8-0.5-2.5
			s-0.7-1.2-1.2-1.6s-1.1-0.7-1.7-0.8C325.2,146.2,324.5,146.1,323.7,146.1z"/>
		<path class="st0" d="M338,142.7h4.4v8.6h10.1v-8.6h4.4v21.4h-4.4v-9h-10.1v9H338V142.7z"/>
		<path class="st0" d="M371.9,164.6c-1.5,0-2.8-0.3-4.1-0.8c-1.3-0.5-2.4-1.3-3.3-2.4s-1.6-2.3-2.2-3.8s-0.8-3.3-0.8-5.2v-0.8
			c0-2.4,0.2-4.6,0.5-6.5s0.9-3.5,1.8-4.8s2-2.4,3.4-3.1s3.2-1.2,5.3-1.3c1.7-0.1,3.2-0.2,4.6-0.2c1.4-0.1,2.5-0.3,3.4-0.8v4.1
			c-0.4,0.2-1.2,0.4-2.4,0.6c-1.2,0.1-2.8,0.2-5,0.3c-1.3,0-2.4,0.2-3.3,0.4c-0.9,0.3-1.7,0.7-2.3,1.3c-0.6,0.6-1.1,1.4-1.5,2.3
			c-0.4,1-0.6,2.1-0.7,3.5c0.6-1.3,1.6-2.3,2.9-3.1s2.9-1.2,4.8-1.2c1.3,0,2.5,0.2,3.7,0.7c1.1,0.4,2.1,1.1,2.9,1.9s1.4,1.9,1.9,3.1
			c0.4,1.2,0.7,2.6,0.7,4.1v0.9c0,1.7-0.3,3.2-0.8,4.5s-1.2,2.5-2.2,3.4c-0.9,0.9-2,1.6-3.2,2.1
			C374.8,164.3,373.4,164.6,371.9,164.6z M371.9,160.7c1.7,0,3.1-0.6,4.2-1.7c1-1.2,1.6-2.9,1.6-5.1V153c0-1.9-0.5-3.4-1.6-4.4
			s-2.5-1.6-4.2-1.6s-3.1,0.5-4.2,1.6s-1.6,2.5-1.6,4.4v0.9c0,1.1,0.1,2,0.4,2.9s0.7,1.6,1.2,2.1c0.5,0.6,1.1,1,1.8,1.3
			C370.4,160.5,371.1,160.7,371.9,160.7z"/>
		<path class="st0" d="M389.3,172.6c-0.4,0-0.8,0-1.2-0.1v-3.9c0.4,0.1,0.8,0.1,1.2,0.1c0.5,0,0.8-0.1,1.2-0.2
			c0.3-0.1,0.6-0.4,0.8-0.8s0.5-0.8,0.8-1.4s0.5-1.3,0.9-2.2l-9.1-21.4h4.8l6.5,16.6l5.9-16.6h4.5l-8.3,21.4
			c-0.6,1.5-1.1,2.8-1.7,3.9c-0.5,1.1-1.1,2-1.7,2.6c-0.6,0.7-1.3,1.2-2,1.5C391.3,172.5,390.4,172.6,389.3,172.6z"/>
		<path class="st0" d="M409.3,142.7h4.1v3.6c0.6-1.2,1.6-2.2,2.9-2.9c1.3-0.7,2.7-1.1,4.3-1.1c2.8,0,5,0.9,6.6,2.6
			c1.6,1.8,2.4,4.4,2.4,7.9v0.8c0,1.8-0.2,3.4-0.6,4.8s-1,2.5-1.8,3.4s-1.7,1.6-2.8,2c-1.1,0.5-2.3,0.7-3.7,0.7
			c-1.5,0-2.9-0.3-4.2-1c-1.3-0.7-2.2-1.6-2.7-2.8v11.5h-4.4L409.3,142.7L409.3,142.7z M419.6,160.7c1.7,0,3-0.6,4-1.7
			s1.5-2.9,1.5-5.3v-0.8c0-2.3-0.5-3.9-1.5-5s-2.4-1.6-4.1-1.6c-0.8,0-1.5,0.1-2.2,0.4c-0.7,0.2-1.3,0.6-1.9,1.1s-1,1.1-1.3,1.8
			c-0.3,0.7-0.5,1.5-0.5,2.4v2.8c0,1,0.2,1.9,0.5,2.7c0.3,0.8,0.8,1.4,1.3,1.9s1.2,0.9,1.9,1.1S418.8,160.7,419.6,160.7z"/>
		<path class="st0" d="M434.1,142.7H449v3.8h-10.5v17.6h-4.4V142.7z"/>
		<path class="st0" d="M461.2,164.6c-1.5,0-2.8-0.2-4-0.7c-1.2-0.4-2.3-1.1-3.2-2c-0.9-0.9-1.6-2.1-2.1-3.4c-0.5-1.4-0.8-3-0.8-4.8
			v-0.8c0-1.7,0.3-3.2,0.8-4.6c0.5-1.3,1.3-2.4,2.2-3.3c0.9-0.9,2-1.6,3.2-2s2.5-0.7,3.9-0.7s2.6,0.2,3.7,0.6c1.1,0.4,2,0.9,2.8,1.6
			s1.4,1.4,1.8,2.3c0.5,0.9,0.8,1.8,0.9,2.9h-4.5c-0.3-1-0.8-1.8-1.5-2.5c-0.7-0.6-1.8-1-3.3-1c-0.8,0-1.5,0.1-2.1,0.4
			c-0.7,0.3-1.3,0.7-1.8,1.2s-0.9,1.2-1.2,2.1c-0.3,0.8-0.4,1.9-0.4,3v0.8c0,1.3,0.1,2.3,0.4,3.2c0.3,0.9,0.7,1.6,1.2,2.2
			s1.1,1,1.8,1.2s1.4,0.4,2.1,0.4c2.5,0,4.1-1.1,4.8-3.4h4.5c-0.2,1.1-0.6,2.1-1.1,3s-1.2,1.7-2,2.3c-0.8,0.6-1.7,1.1-2.8,1.5
			S462.4,164.6,461.2,164.6z"/>
		<path class="st0" d="M474.7,142.7h4.4v8.7h2.4l7.5-8.7h5l-9.1,10.2l9.5,11.2H489l-7.5-9.1h-2.4v9.1h-4.4L474.7,142.7L474.7,142.7z
			"/>
		<path class="st0" d="M506.6,164.6c-1.5,0-2.9-0.2-4.1-0.7c-1.3-0.5-2.4-1.2-3.3-2.1c-0.9-0.9-1.7-2.1-2.2-3.4
			c-0.5-1.4-0.8-2.9-0.8-4.7v-0.8c0-1.7,0.3-3.2,0.8-4.5s1.3-2.4,2.2-3.3s2.1-1.6,3.3-2c1.3-0.5,2.7-0.7,4.1-0.7
			c1.5,0,2.9,0.2,4.1,0.7c1.3,0.5,2.4,1.1,3.3,2s1.7,2,2.2,3.3s0.8,2.8,0.8,4.5v0.8c0,1.8-0.3,3.4-0.8,4.7c-0.5,1.4-1.3,2.5-2.2,3.4
			s-2.1,1.6-3.3,2.1S508,164.6,506.6,164.6z M506.6,160.7c0.8,0,1.5-0.1,2.2-0.4s1.3-0.7,1.9-1.3c0.6-0.6,1-1.3,1.3-2.2
			c0.3-0.9,0.5-2,0.5-3.2v-0.8c0-1.2-0.2-2.2-0.5-3s-0.8-1.5-1.3-2.1c-0.6-0.5-1.2-0.9-1.9-1.2c-0.7-0.3-1.5-0.4-2.2-0.4
			s-1.5,0.1-2.2,0.4s-1.3,0.7-1.9,1.2c-0.6,0.5-1,1.2-1.3,2.1c-0.3,0.8-0.5,1.8-0.5,3v0.8c0,1.3,0.2,2.3,0.5,3.2
			c0.3,0.9,0.8,1.6,1.3,2.2c0.6,0.6,1.2,1,1.9,1.3C505,160.5,505.8,160.7,506.6,160.7z"/>
		<path class="st0" d="M521.5,142.7h4.4v15.1l10.3-15.1h4.2v21.4H536V149l-10.3,15.1h-4.2V142.7z M531,140.3c-2.2,0-3.9-0.5-4.9-1.5
			s-1.6-2.4-1.6-4.2h4.1c0,1,0.2,1.7,0.6,2.1c0.4,0.4,1,0.6,1.8,0.6s1.4-0.2,1.8-0.6c0.4-0.4,0.6-1.1,0.6-2.1h4.1
			c0,1.8-0.5,3.2-1.6,4.2C534.8,139.8,533.2,140.3,531,140.3z"/>
		<path class="st0" d="M565.5,164.6c-1.5,0-2.9-0.2-4.1-0.7c-1.3-0.5-2.4-1.2-3.3-2.1c-0.9-0.9-1.7-2.1-2.2-3.4
			c-0.5-1.4-0.8-2.9-0.8-4.7v-0.8c0-1.7,0.3-3.2,0.8-4.5s1.3-2.4,2.2-3.3s2.1-1.6,3.3-2c1.3-0.5,2.7-0.7,4.1-0.7
			c1.5,0,2.9,0.2,4.1,0.7c1.3,0.5,2.4,1.1,3.3,2s1.7,2,2.2,3.3s0.8,2.8,0.8,4.5v0.8c0,1.8-0.3,3.4-0.8,4.7c-0.5,1.4-1.3,2.5-2.2,3.4
			s-2.1,1.6-3.3,2.1S567,164.6,565.5,164.6z M565.5,160.7c0.8,0,1.5-0.1,2.2-0.4s1.3-0.7,1.9-1.3c0.6-0.6,1-1.3,1.3-2.2
			c0.3-0.9,0.5-2,0.5-3.2v-0.8c0-1.2-0.2-2.2-0.5-3s-0.8-1.5-1.3-2.1c-0.6-0.5-1.2-0.9-1.9-1.2c-0.7-0.3-1.5-0.4-2.2-0.4
			s-1.5,0.1-2.2,0.4s-1.3,0.7-1.9,1.2c-0.6,0.5-1,1.2-1.3,2.1c-0.3,0.8-0.5,1.8-0.5,3v0.8c0,1.3,0.2,2.3,0.5,3.2
			c0.3,0.9,0.8,1.6,1.3,2.2c0.6,0.6,1.2,1,1.9,1.3C564,160.5,564.7,160.7,565.5,160.7z"/>
		<path class="st0" d="M589.7,164.6c-1.5,0-2.8-0.3-4.1-0.8s-2.4-1.3-3.3-2.4s-1.6-2.3-2.2-3.8s-0.8-3.3-0.8-5.2v-0.8
			c0-2.4,0.2-4.6,0.5-6.5s0.9-3.5,1.8-4.8s2-2.4,3.4-3.1s3.2-1.2,5.3-1.3c1.7-0.1,3.2-0.2,4.6-0.2c1.4-0.1,2.5-0.3,3.4-0.8v4.1
			c-0.4,0.2-1.2,0.4-2.4,0.6c-1.2,0.1-2.8,0.2-5,0.3c-1.3,0-2.4,0.2-3.3,0.4c-0.9,0.3-1.7,0.7-2.3,1.3c-0.6,0.6-1.1,1.4-1.5,2.3
			c-0.4,1-0.6,2.1-0.7,3.5c0.6-1.3,1.6-2.3,2.9-3.1s2.9-1.2,4.8-1.2c1.3,0,2.5,0.2,3.7,0.7c1.1,0.4,2.1,1.1,2.9,1.9
			c0.8,0.8,1.4,1.9,1.9,3.1c0.4,1.2,0.7,2.6,0.7,4.1v0.9c0,1.7-0.3,3.2-0.8,4.5s-1.2,2.5-2.2,3.4c-0.9,0.9-2,1.6-3.2,2.1
			C592.6,164.3,591.2,164.6,589.7,164.6z M589.7,160.7c1.7,0,3.1-0.6,4.2-1.7c1-1.2,1.6-2.9,1.6-5.1V153c0-1.9-0.5-3.4-1.6-4.4
			s-2.5-1.6-4.2-1.6s-3.1,0.5-4.2,1.6s-1.6,2.5-1.6,4.4v0.9c0,1.1,0.1,2,0.4,2.9s0.7,1.6,1.2,2.1c0.5,0.6,1.1,1,1.8,1.3
			C588.2,160.5,588.9,160.7,589.7,160.7z"/>
		<path class="st0" d="M603.6,164.6c-0.2,0-0.5,0-0.7,0c-0.3,0-0.5,0-0.7-0.1v-4.2c0.1,0,0.3,0,0.6,0c0.6,0,1-0.2,1.5-0.5
			c0.4-0.3,0.7-0.9,1-1.8s0.5-2,0.6-3.4s0.2-3.2,0.2-5.4v-6.5h16.1v21.4h-4.4v-17.6h-7.4v3.5c0,2.9-0.1,5.3-0.4,7.1
			c-0.3,1.9-0.7,3.4-1.3,4.5s-1.3,1.9-2.1,2.3C605.7,164.3,604.7,164.6,603.6,164.6z"/>
		<path class="st0" d="M634.1,164.6c-1.2,0-2.2-0.2-3.1-0.5s-1.7-0.8-2.3-1.4s-1.1-1.3-1.4-2.1s-0.5-1.7-0.5-2.7
			c0-2.1,0.6-3.7,1.9-4.7c1.3-1,3.1-1.6,5.6-1.6h6.7v-1.2c0-1.6-0.4-2.7-1.1-3.3c-0.7-0.6-1.8-0.9-3.4-0.9c-1.4,0-2.4,0.2-3,0.6
			s-1,1-1.1,1.8h-4.3c0.1-0.9,0.3-1.8,0.7-2.5c0.4-0.8,1-1.4,1.7-2s1.6-1,2.7-1.3c1-0.3,2.2-0.5,3.6-0.5s2.5,0.1,3.6,0.4
			s2,0.8,2.7,1.4c0.8,0.6,1.3,1.4,1.8,2.4c0.4,1,0.6,2.2,0.6,3.6v8.5c0,1.1,0,2.1,0,3s0.1,1.7,0.2,2.5h-4c-0.1-0.6-0.1-1.1-0.2-1.6
			c0-0.4-0.1-1-0.1-1.6c-0.5,1-1.4,1.9-2.6,2.6S636,164.6,634.1,164.6z M635.3,160.7c0.8,0,1.5-0.1,2.2-0.3c0.7-0.2,1.3-0.5,1.8-0.9
			s0.9-0.9,1.2-1.5s0.5-1.2,0.5-2v-1.2h-5.9c-1.1,0-2,0.2-2.7,0.7s-1,1.2-1,2.1s0.3,1.6,0.9,2.1C633,160.4,634,160.7,635.3,160.7z"
			/>
		<path class="st0" d="M659.8,164.6c-1.5,0-2.8-0.2-4-0.7c-1.2-0.4-2.3-1.1-3.2-2s-1.6-2.1-2.1-3.4c-0.5-1.4-0.8-3-0.8-4.8v-0.8
			c0-1.7,0.3-3.2,0.8-4.6c0.5-1.3,1.3-2.4,2.2-3.3s2-1.6,3.2-2s2.5-0.7,3.9-0.7s2.6,0.2,3.7,0.6c1.1,0.4,2,0.9,2.8,1.6
			s1.4,1.4,1.8,2.3c0.5,0.9,0.8,1.8,0.9,2.9h-4.5c-0.3-1-0.8-1.8-1.5-2.5c-0.7-0.6-1.8-1-3.3-1c-0.8,0-1.5,0.1-2.1,0.4
			c-0.7,0.3-1.3,0.7-1.8,1.2s-0.9,1.2-1.2,2.1c-0.3,0.8-0.4,1.9-0.4,3v0.8c0,1.3,0.1,2.3,0.4,3.2c0.3,0.9,0.7,1.6,1.2,2.2
			s1.1,1,1.8,1.2s1.4,0.4,2.1,0.4c2.5,0,4.1-1.1,4.8-3.4h4.5c-0.2,1.1-0.6,2.1-1.1,3s-1.2,1.7-2,2.3c-0.8,0.6-1.7,1.1-2.8,1.5
			S661,164.6,659.8,164.6z"/>
		<path class="st0" d="M678.3,146.5h-7.1v-3.8h18.6v3.8h-7.1v17.6h-4.4V146.5z"/>
		<path class="st0" d="M693.5,142.7h4.4v15.1l10.3-15.1h4.2v21.4H708V149l-10.3,15.1h-4.2V142.7z"/>
	</g>
	<g>
		<path class="st0" d="M228.9,121.5l-48,71.5h-14.6l48-71.5l-47.8-71.6h14.6L228.9,121.5z"/>
		<g>
			<path class="st1" d="M148.1,166.3l76.3,26.7l-46.5-82.2c-11.1-5.9-46.2-23.7-45.3-12.8c1,12.9,26.1,12.9,32.6,31.9
				C169.5,142.8,156.8,157.9,148.1,166.3z"/>
			<path class="st1" d="M134.5,114.5c-20.8-11.9-20-28.4,0.8-26c12.4,1.4,28,9.2,38.6,15.2l-49.4-87.3l-91.7,159l63.7-23.2
				C111,145.2,151.7,124.3,134.5,114.5z"/>
		</g>
		<path class="st0" d="M29.3,104l48-71.5h14.6l-48,71.5l47.8,71.6H77.1L29.3,104z"/>
	</g>
</g>
</svg>
