<svg width="21" height="20" viewBox="0 0 21 20" fill="none" xmlns="http://www.w3.org/2000/svg">
<path fill-rule="evenodd" clip-rule="evenodd" d="M10.5 20C16.0228 20 20.5 15.5228 20.5 10C20.5 4.47716 16.0228 0 10.5 0C4.97716 0 0.5 4.47716 0.5 10C0.5 15.5228 4.97716 20 10.5 20ZM10.5 18.4615C15.1732 18.4615 18.9615 14.6732 18.9615 10C18.9615 5.32677 15.1732 1.53846 10.5 1.53846C5.82677 1.53846 2.03846 5.32677 2.03846 10C2.03846 14.6732 5.82677 18.4615 10.5 18.4615Z" fill="#0064DC"/>
<path d="M7.79923 14.6154V13.2946H6.62231V12.1438H7.79923V11.2023H6.62231V9.89462H7.79923V5.46154H10.8723C11.4215 5.46154 11.901 5.53128 12.3108 5.67077C12.7292 5.81026 13.0779 6.00641 13.3569 6.25923C13.6359 6.51205 13.8451 6.81718 13.9846 7.17462C14.1328 7.53205 14.2069 7.92436 14.2069 8.35154C14.2069 8.77 14.1328 9.15795 13.9846 9.51538C13.8451 9.8641 13.6359 10.1649 13.3569 10.4177C13.0779 10.6618 12.7292 10.8536 12.3108 10.9931C11.901 11.1326 11.4215 11.2023 10.8723 11.2023H9.39462V12.1438H12.3762V13.2946H9.39462V14.6154H7.79923ZM9.39462 9.89462H10.7415C11.4041 9.89462 11.8792 9.75949 12.1669 9.48923C12.4546 9.21026 12.5985 8.83103 12.5985 8.35154C12.5985 7.88077 12.4546 7.51026 12.1669 7.24C11.8792 6.96103 11.4041 6.82154 10.7415 6.82154H9.39462V9.89462Z" fill="#0064DC"/>
</svg>
