<svg width="22" height="22" viewBox="0 0 22 22" fill="none" xmlns="http://www.w3.org/2000/svg">
<path d="M19 11C19 13.1217 18.1571 15.1566 16.6569 16.6569C15.1566 18.1571 13.1217 19 11 19C8.87827 19 6.84344 18.1571 5.34315 16.6569C3.84285 15.1566 3 13.1217 3 11C3 8.87827 3.84285 6.84344 5.34315 5.34315C6.84344 3.84285 8.87827 3 11 3C13.1217 3 15.1566 3.84285 16.6569 5.34315C18.1571 6.84344 19 8.87827 19 11ZM11.287 8.906C10.509 9.23 8.953 9.9 6.621 10.916C6.243 11.066 6.044 11.214 6.026 11.358C5.996 11.601 6.301 11.697 6.716 11.828L6.891 11.883C7.299 12.016 7.849 12.171 8.134 12.177C8.394 12.183 8.683 12.077 9.002 11.857C11.181 10.386 12.306 9.643 12.376 9.627C12.426 9.615 12.496 9.601 12.542 9.643C12.589 9.684 12.584 9.763 12.579 9.784C12.549 9.913 11.352 11.025 10.733 11.601C10.54 11.781 10.403 11.908 10.375 11.937C10.3133 12 10.2507 12.062 10.187 12.123C9.807 12.489 9.523 12.763 10.202 13.211C10.529 13.427 10.791 13.604 11.052 13.782C11.336 13.976 11.62 14.169 11.988 14.411C12.081 14.471 12.171 14.536 12.258 14.598C12.589 14.834 12.888 15.046 13.255 15.012C13.469 14.992 13.69 14.792 13.802 14.192C14.067 12.775 14.588 9.706 14.708 8.441C14.7153 8.33584 14.711 8.2302 14.695 8.126C14.6856 8.04192 14.6449 7.96446 14.581 7.909C14.49 7.84619 14.3815 7.81365 14.271 7.816C13.971 7.821 13.508 7.982 11.287 8.906Z" fill="#006EFF"/>
</svg>
